<svg width="109" height="31" viewBox="0 0 109 31" fill="none" xmlns="http://www.w3.org/2000/svg">
<path d="M12.0386 22.933C12.8756 22.933 13.7126 22.84 14.4876 22.685C13.3716 24.204 11.9146 25.723 10.3956 26.932C7.91564 25.909 5.90064 25.01 4.35064 25.01C1.74664 25.01 1.28164 26.436 1.28164 27.459C1.28164 28.699 2.33564 29.97 4.56764 29.97C6.39664 29.97 8.50464 28.947 10.4576 27.459C13.9296 28.916 17.9596 30.59 21.2146 30.59C24.5316 30.59 26.4536 29.195 26.4536 26.653C26.4536 24.731 25.0276 23.491 23.6636 23.15L23.5396 23.429C24.5316 23.863 25.1516 24.452 25.1516 26.343C25.1516 29.536 22.5786 30.156 21.1836 30.156C18.0216 30.156 14.2086 28.544 10.8606 27.149C11.5736 26.56 12.2556 25.94 12.8756 25.258C14.3016 23.77 15.9446 22.437 17.7116 21.383C20.9666 19.43 23.0746 15.803 23.0746 11.649C23.0746 5.57302 18.4866 0.613023 12.4726 0.396022C6.21064 0.148023 1.06464 5.13902 0.940645 11.401C0.816645 17.756 5.71464 22.933 12.0386 22.933ZM12.0386 0.799022C17.0296 0.799022 21.5556 4.73602 21.5556 11.649C21.5556 18.593 17.0296 22.499 12.0386 22.499C7.04764 22.499 2.45964 18.593 2.45964 11.649C2.45964 4.73602 7.04764 0.799022 12.0386 0.799022ZM2.58364 27.459C2.58364 26.064 3.45164 25.444 4.56764 25.444C5.68364 25.444 7.66765 26.281 9.99265 27.242C8.16364 28.606 6.21064 29.536 4.56764 29.536C3.63764 29.536 2.58364 29.102 2.58364 27.459ZM24.7537 22.499H29.0937V22.344C28.1327 22.344 27.5747 22.22 27.5747 21.104V5.69702C27.5747 4.95302 26.9857 4.39502 26.2727 4.39502H24.7537V4.55002C25.7147 4.55002 26.2727 4.64302 26.2727 5.79002V21.104C26.2727 22.22 25.7147 22.344 24.7537 22.344V22.499ZM25.7147 1.88402C25.8697 2.53502 26.5517 2.93802 27.2027 2.78302C27.8537 2.62802 28.2567 1.97702 28.1017 1.29502C27.9467 0.644022 27.2957 0.241022 26.6447 0.396022C25.9627 0.551023 25.5597 1.20202 25.7147 1.88402ZM30.6498 0.799022V0.954022C31.6108 0.954022 32.1688 1.07802 32.1688 2.19402V21.104C32.1688 22.22 31.6108 22.344 30.6498 22.344V22.499H36.9738C44.9718 22.499 48.3198 17.198 48.3198 10.657C48.3198 3.71302 44.6928 0.365022 40.0118 0.365022C36.9428 0.365022 34.4628 2.28702 33.4708 4.48802V2.10102C33.4708 1.38802 32.8818 0.799022 32.1688 0.799022H30.6498ZM33.4708 6.68902C33.4708 4.08502 36.1678 0.799022 39.8878 0.799022C44.3208 0.799022 46.8008 3.99202 46.8008 10.657C46.8008 20.298 41.5308 22.065 37.0978 22.065C34.5248 22.065 33.4708 21.755 33.4708 21.104V6.68902ZM49.7293 22.499H54.0693V22.344C53.1083 22.344 52.5503 22.22 52.5503 21.104V5.69702C52.5503 4.95302 51.9613 4.39502 51.2483 4.39502H49.7293V4.55002C50.6903 4.55002 51.2483 4.64302 51.2483 5.79002V21.104C51.2483 22.22 50.6903 22.344 49.7293 22.344V22.499ZM50.6903 1.88402C50.8453 2.53502 51.5273 2.93802 52.1783 2.78302C52.8293 2.62802 53.2323 1.97702 53.0773 1.29502C52.9223 0.644022 52.2713 0.241022 51.6203 0.396022C50.9383 0.551023 50.5353 1.20202 50.6903 1.88402ZM55.4207 0.954022C56.3817 0.954022 56.9397 1.07802 56.9397 2.19402V21.104C56.9397 22.22 56.3817 22.344 55.4207 22.344V22.499H59.7607V22.344C58.7997 22.344 58.2417 22.22 58.2417 21.104V2.19402C58.2417 1.54302 59.2957 1.23302 61.8687 1.23302C63.6977 1.23302 67.0457 2.19402 67.0457 5.91402C67.0457 9.20002 64.9067 11.525 61.9307 11.525C60.9387 11.525 59.8537 11.277 58.7067 10.688L58.5207 11.029L67.2627 21.197C67.9757 22.034 69.0297 22.499 70.1147 22.499H71.1067V22.344C70.1457 22.344 69.7427 22.065 68.7507 20.949L61.0937 11.99C61.5587 12.083 62.0547 12.145 62.5197 12.145C65.6817 12.145 68.5647 10.068 68.5647 5.85202C68.5647 2.44202 65.9607 0.799022 61.7447 0.799022H55.4207V0.954022ZM72.4949 22.499H76.8349V22.344C75.8739 22.344 75.3159 22.22 75.3159 21.104V5.69702C75.3159 4.95302 74.7269 4.39502 74.0139 4.39502H72.4949V4.55002C73.4559 4.55002 74.0139 4.64302 74.0139 5.79002V21.104C74.0139 22.22 73.4559 22.344 72.4949 22.344V22.499ZM73.4559 1.88402C73.6109 2.53502 74.2929 2.93802 74.9439 2.78302C75.5949 2.62802 75.9979 1.97702 75.8429 1.29502C75.6879 0.644022 75.0369 0.241022 74.3859 0.396022C73.7039 0.551023 73.3009 1.20202 73.4559 1.88402ZM78.701 17.043C78.794 20.546 81.491 22.933 85.118 22.933C89.861 22.933 91.504 19.585 91.504 17.477C91.504 11.339 81.398 10.657 81.398 5.07702C81.398 2.25602 83.165 0.830022 85.366 0.799022C87.412 0.830022 88.993 2.47302 89.055 4.58102L90.202 2.96902C89.396 1.38802 87.629 0.396022 85.428 0.365022H85.335C82.173 0.396022 80.096 2.25602 80.096 5.29402C80.096 11.649 90.202 12.331 90.202 17.446C90.202 19.43 89.272 22.499 85.118 22.499C81.708 22.499 79.91 19.988 79.941 17.322C79.941 15.741 80.623 14.346 81.646 13.168L80.406 12.362C79.228 13.726 78.67 15.4 78.701 17.043ZM93.3533 22.344V22.499H97.6933V22.344C96.7323 22.344 96.1743 22.22 96.1743 21.104V9.26202C97.0113 10.223 98.8403 10.595 100.607 10.936C102.963 11.37 105.381 11.866 105.691 13.664V21.104C105.691 22.22 105.164 22.344 104.172 22.344V22.499H108.512V22.344C107.551 22.344 106.993 22.22 106.993 21.104V2.19402C106.993 1.07802 107.551 0.954022 108.512 0.954022V0.799022H104.172V0.954022C105.164 0.954022 105.691 1.07802 105.691 2.19402V12.548C104.792 11.308 102.715 10.905 100.7 10.502C98.5303 10.068 96.5153 9.69602 96.1743 8.33202V2.19402C96.1743 1.07802 96.7323 0.954022 97.6933 0.954022V0.799022H93.3533V0.954022C94.3143 0.954022 94.8723 1.07802 94.8723 2.19402V21.104C94.8723 22.22 94.3143 22.344 93.3533 22.344Z" fill="#C9AC8C"/>
</svg>
