<svg width="17" height="17" viewBox="0 0 17 17" fill="none" xmlns="http://www.w3.org/2000/svg">
<path d="M2.72529 5.89359V6.06053H2.89222H14.9114H15.0784V5.89359V5.14239C15.0784 4.76607 14.9289 4.40516 14.6628 4.13906C14.3967 3.87295 14.0357 3.72346 13.6594 3.72346H4.14422C3.7679 3.72346 3.40699 3.87295 3.14089 4.13906C2.87479 4.40516 2.72529 4.76607 2.72529 5.14239V5.89359ZM15.0784 6.89519V6.72826H14.9114H2.89222H2.72529V6.89519V11.6528C2.72529 12.0291 2.87479 12.39 3.14089 12.6561C3.40699 12.9222 3.7679 13.0717 4.14422 13.0717H13.6594C14.0357 13.0717 14.3967 12.9222 14.6628 12.6561C14.9289 12.39 15.0784 12.0291 15.0784 11.6528V6.89519ZM2.05756 5.14239C2.05756 4.58898 2.2774 4.05822 2.66873 3.6669C3.06005 3.27557 3.59081 3.05573 4.14422 3.05573H13.6594C14.2128 3.05573 14.7436 3.27557 15.1349 3.6669C15.5262 4.05822 15.7461 4.58898 15.7461 5.14239V11.6528C15.7461 12.2062 15.5262 12.737 15.1349 13.1283C14.7436 13.5196 14.2128 13.7395 13.6594 13.7395H4.14422C3.59081 13.7395 3.06005 13.5196 2.66873 13.1283C2.2774 12.737 2.05756 12.2062 2.05756 11.6528V5.14239ZM11.4058 10.0669H12.9082C12.9968 10.0669 13.0817 10.1021 13.1443 10.1647C13.2069 10.2273 13.2421 10.3122 13.2421 10.4008C13.2421 10.4893 13.2069 10.5743 13.1443 10.6369C13.0817 10.6995 12.9968 10.7347 12.9082 10.7347H11.4058C11.3173 10.7347 11.2324 10.6995 11.1697 10.6369C11.1071 10.5743 11.072 10.4893 11.072 10.4008C11.072 10.3122 11.1071 10.2273 11.1697 10.1647C11.2324 10.1021 11.3173 10.0669 11.4058 10.0669Z" fill="#4CAF4F" stroke="#4CAF4F" stroke-width="0.333867"/>
</svg>
