<svg width="17" height="17" viewBox="0 0 17 17" fill="none" xmlns="http://www.w3.org/2000/svg">
<path d="M14.0917 14.4071V13.0717C14.0917 12.3633 13.8103 11.6839 13.3094 11.183C12.8085 10.6821 12.1291 10.4007 11.4208 10.4007H10.753C10.5759 10.4007 10.4061 10.3304 10.2809 10.2052C10.1556 10.0799 10.0853 9.9101 10.0853 9.733V6.39434C10.0853 6.04015 9.94459 5.70047 9.69414 5.45002C9.44369 5.19957 9.10401 5.05887 8.74982 5.05887C8.39564 5.05887 8.05595 5.19957 7.80551 5.45002C7.55506 5.70047 7.41436 6.04015 7.41436 6.39434V12.4039L5.8118 10.2672C5.6874 10.1013 5.5261 9.96671 5.34066 9.87399C5.15523 9.78127 4.95075 9.733 4.74343 9.733H4.45363C3.87604 9.733 3.40796 10.2011 3.40796 10.7787C3.40796 10.9683 3.45937 11.1546 3.55686 11.3169L5.41116 14.4071M8.74982 3.05567V2.38794V3.05567ZM12.7562 7.06207H13.424H12.7562ZM4.07569 7.06207H4.74343H4.07569ZM5.64019 3.95244L5.1681 3.48035L5.64019 3.95244ZM11.8595 3.95244L12.3315 3.48035L11.8595 3.95244Z" fill="#4CAF4F"/>
<path d="M14.0917 14.4071V13.0717C14.0917 12.3633 13.8103 11.6839 13.3094 11.183C12.8085 10.6821 12.1291 10.4007 11.4208 10.4007H10.753C10.5759 10.4007 10.4061 10.3304 10.2809 10.2052C10.1556 10.0799 10.0853 9.9101 10.0853 9.733V6.39434C10.0853 6.04015 9.94459 5.70047 9.69414 5.45002C9.44369 5.19957 9.10401 5.05887 8.74982 5.05887V5.05887C8.39564 5.05887 8.05596 5.19957 7.80551 5.45002C7.55506 5.70047 7.41436 6.04015 7.41436 6.39434V12.4039L5.8118 10.2672C5.6874 10.1013 5.5261 9.96671 5.34066 9.87399C5.15523 9.78127 4.95075 9.733 4.74343 9.733H4.45363C3.87604 9.733 3.40796 10.2011 3.40796 10.7787C3.40796 10.9683 3.45937 11.1546 3.55686 11.3169L5.41116 14.4071M8.74982 3.05567V2.38794M12.7562 7.06207H13.424M4.07569 7.06207H4.74343M5.64019 3.95244L5.1681 3.48035M11.8595 3.95244L12.3315 3.48035" stroke="#4CAF4F" stroke-width="0.667733" stroke-linecap="round" stroke-linejoin="round"/>
</svg>
