<svg width="17" height="17" viewBox="0 0 17 17" fill="none" xmlns="http://www.w3.org/2000/svg">
<g clip-path="url(#clip0_212_1407)">
<path d="M11.3478 4.12007C11.1036 4.11963 10.8606 4.1534 10.6258 4.22038L10.6258 4.22037L10.6239 4.22094C10.5496 4.24309 10.4717 4.25025 10.3946 4.24199C10.3176 4.23374 10.2429 4.21024 10.1751 4.17286L10.0945 4.31909L10.1751 4.17286C10.1072 4.13548 10.0474 4.08498 9.99923 4.02428C9.95106 3.96358 9.91544 3.8939 9.89445 3.81931C9.87346 3.74471 9.86752 3.66668 9.87697 3.58977C9.88642 3.51286 9.91108 3.43859 9.94952 3.3713C9.98795 3.304 10.0394 3.24503 10.1008 3.19781C10.1623 3.15058 10.2325 3.11605 10.3074 3.09623L10.3074 3.09625L10.3104 3.0954C10.6477 2.99938 10.9967 2.95096 11.3474 2.95154L11.3482 2.95154C12.1362 2.94925 12.9057 3.18987 13.552 3.64064C14.1984 4.09141 14.6901 4.73041 14.9602 5.47066C15.2304 6.21091 15.2658 7.01643 15.0617 7.77753C14.8576 8.53864 14.4239 9.21836 13.8196 9.72414L13.6159 9.89468L13.858 10.0042C14.8507 10.4535 15.7049 11.1604 16.3318 12.0516L16.3326 12.0526C16.3771 12.1149 16.4088 12.1855 16.4259 12.2601C16.4429 12.3348 16.4449 12.4122 16.4318 12.4876C16.4187 12.5631 16.3907 12.6352 16.3495 12.6998C16.3083 12.7644 16.2547 12.8201 16.1917 12.8637L16.1917 12.8637L16.1897 12.8651C16.0923 12.9348 15.9754 12.9721 15.8556 12.9717C15.7619 12.9711 15.6697 12.9483 15.5866 12.905C15.5035 12.8618 15.4319 12.7994 15.3777 12.723C14.9225 12.0772 14.3189 11.5501 13.6177 11.186C12.9165 10.8219 12.138 10.6313 11.3479 10.6305H11.3477C11.1927 10.6305 11.0441 10.5689 10.9345 10.4593C10.825 10.3498 10.7634 10.2012 10.7634 10.0462C10.7634 9.89125 10.825 9.74264 10.9345 9.63307C11.0441 9.5235 11.1927 9.46194 11.3477 9.46194C12.0561 9.46194 12.7354 9.18054 13.2363 8.67964C13.7372 8.17874 14.0186 7.49938 14.0186 6.79101C14.0186 6.08263 13.7372 5.40327 13.2363 4.90237C12.7354 4.4015 12.0561 4.12011 11.3478 4.12007ZM11.3478 4.12007C11.3479 4.12007 11.3479 4.12007 11.348 4.12007L11.3477 4.28701V4.12007C11.3477 4.12007 11.3478 4.12007 11.3478 4.12007ZM8.71743 9.7244L8.51466 9.89498L8.75607 10.0042C9.74876 10.4535 10.603 11.1604 11.2299 12.0516L11.2298 12.0517L11.2349 12.0582C11.2836 12.1206 11.3191 12.1923 11.3393 12.2688L11.5007 12.2262L11.3393 12.2688C11.3594 12.3453 11.3639 12.4252 11.3522 12.5035C11.3406 12.5818 11.3132 12.6569 11.2717 12.7243C11.2302 12.7916 11.1754 12.8499 11.1107 12.8955C11.0459 12.941 10.9726 12.973 10.8952 12.9893C10.8178 13.0057 10.7378 13.0062 10.6602 12.9907C10.5825 12.9753 10.5089 12.9442 10.4436 12.8994C10.3784 12.8546 10.3229 12.797 10.2806 12.7301L10.2807 12.73L10.2761 12.7235C9.82182 12.0764 9.2184 11.5482 8.51689 11.1836C7.81538 10.819 7.03639 10.6287 6.24578 10.6287C5.45517 10.6287 4.67618 10.819 3.97466 11.1836C3.27315 11.5482 2.66974 12.0764 2.21544 12.7235L2.21506 12.724C2.16166 12.8007 2.09045 12.8633 2.00755 12.9064C1.92465 12.9496 1.83252 12.972 1.73906 12.9717L1.73803 12.9717C1.61818 12.9721 1.50122 12.9348 1.40371 12.8651L1.40291 12.8645C1.27651 12.7753 1.19067 12.6396 1.1642 12.4872C1.13773 12.3348 1.1728 12.1781 1.26171 12.0514C1.88865 11.1603 2.74284 10.4534 3.73548 10.0042L3.97689 9.89498L3.77412 9.7244C3.17148 9.21743 2.73931 8.53742 2.5362 7.77654C2.33309 7.01566 2.36887 6.21072 2.63869 5.47086C2.9085 4.73101 3.3993 4.09201 4.04454 3.64051C4.68978 3.18901 5.45825 2.94684 6.24578 2.94684C7.0333 2.94684 7.80177 3.18901 8.44702 3.64051C9.09226 4.09201 9.58306 4.73101 9.85287 5.47086C10.1227 6.21072 10.1585 7.01566 9.95535 7.77654C9.75224 8.53742 9.32007 9.21743 8.71743 9.7244ZM1.30664 13.0009C1.43262 13.091 1.58372 13.1391 1.73858 13.1386C1.85903 13.139 1.97776 13.1101 2.08461 13.0545C2.19146 12.9989 2.28323 12.9182 2.35206 12.8194C2.79096 12.1943 3.37392 11.684 4.05165 11.3318C4.72938 10.9795 5.48197 10.7956 6.24578 10.7956C7.00959 10.7956 7.76217 10.9795 8.4399 11.3318C9.11764 11.684 9.7006 12.1943 10.1395 12.8194L1.30664 13.0009ZM4.02498 5.30712C3.73149 5.74635 3.57484 6.26275 3.57484 6.79101C3.57484 7.49938 3.85625 8.17874 4.35714 8.67964C4.85804 9.18054 5.5374 9.46194 6.24578 9.46194C6.77404 9.46194 7.29043 9.30529 7.72967 9.01181C8.1689 8.71832 8.51124 8.30118 8.7134 7.81313C8.91555 7.32508 8.96845 6.78804 8.86539 6.26993C8.76233 5.75182 8.50795 5.27591 8.13441 4.90237C7.76087 4.52884 7.28496 4.27445 6.76685 4.1714C6.24874 4.06834 5.7117 4.12123 5.22366 4.32339C4.73561 4.52554 4.31846 4.86788 4.02498 5.30712Z" fill="#4CAF4F" stroke="#4CAF4F" stroke-width="0.333867"/>
</g>
<defs>
<clipPath id="clip0_212_1407">
<rect width="16.0256" height="16.0256" fill="white" transform="translate(0.737061 0.0301514)"/>
</clipPath>
</defs>
</svg>
